<svg width="32" height="32" viewBox="0 0 32 32" fill="none" xmlns="http://www.w3.org/2000/svg">
<g clip-path="url(#clip0_177_81)">
<circle cx="16" cy="16" r="16" fill="white"/>
<path d="M5.92042 14.375C5.10014 14.375 4.40834 14.0918 3.845 13.5255C3.28166 12.959 3 12.2657 3 11.4455C3 10.6252 3.28319 9.93335 3.84958 9.37C4.41597 8.80664 5.1093 8.525 5.92958 8.525C6.74986 8.525 7.44164 8.8082 8.005 9.37455C8.56835 9.94096 8.85 10.6343 8.85 11.4546C8.85 12.2749 8.56679 12.9666 8.00038 13.53C7.43404 14.0934 6.7407 14.375 5.92042 14.375ZM11.933 8.85C11.1126 8.85 10.4209 8.5668 9.8575 8.00045C9.29415 7.43404 9.0125 6.74069 9.0125 5.92045C9.0125 5.10014 9.2957 4.40834 9.86205 3.845C10.4285 3.28166 11.1218 3 11.942 3C12.7623 3 13.4541 3.28319 14.0175 3.84958C14.5809 4.41597 14.8625 5.1093 14.8625 5.92955C14.8625 6.74985 14.5793 7.44165 14.0129 8.005C13.4465 8.56836 12.7532 8.85 11.933 8.85ZM20.0579 8.85C19.2376 8.85 18.5459 8.5668 17.9825 8.00045C17.4191 7.43404 17.1375 6.74069 17.1375 5.92045C17.1375 5.10014 17.4207 4.40834 17.9871 3.845C18.5535 3.28166 19.2468 3 20.067 3C20.8874 3 21.5791 3.28319 22.1425 3.84958C22.7059 4.41597 22.9875 5.1093 22.9875 5.92955C22.9875 6.74985 22.7043 7.44165 22.1379 8.005C21.5715 8.56836 20.8782 8.85 20.0579 8.85ZM26.0704 14.375C25.2501 14.375 24.5584 14.0918 23.995 13.5255C23.4316 12.959 23.15 12.2657 23.15 11.4455C23.15 10.6252 23.4332 9.93335 23.9995 9.37C24.566 8.80664 25.2593 8.525 26.0795 8.525C26.8998 8.525 27.5916 8.8082 28.155 9.37455C28.7184 9.94096 29 10.6343 29 11.4546C29 12.2749 28.7168 12.9666 28.1504 13.53C27.584 14.0934 26.8907 14.375 26.0704 14.375ZM9.045 27.7C8.135 27.7 7.3875 27.3585 6.8025 26.6754C6.2175 25.9923 5.925 25.1855 5.925 24.255C5.925 23.345 6.20125 22.5379 6.75375 21.8337C7.30625 21.1296 7.89664 20.4525 8.525 19.8025C9.00164 19.3259 9.44585 18.8221 9.8575 18.2913C10.2691 17.7604 10.6591 17.2134 11.0275 16.65C11.6559 15.6966 12.36 14.8084 13.14 13.985C13.92 13.1616 14.8734 12.75 16 12.75C17.1266 12.75 18.0854 13.1616 18.8762 13.985C19.6671 14.8084 20.3766 15.7075 21.005 16.6825C21.3734 17.2459 21.7579 17.7875 22.1587 18.3075C22.5596 18.8275 22.9984 19.3259 23.475 19.8025C24.1034 20.4525 24.6937 21.1296 25.2462 21.8337C25.7987 22.5379 26.075 23.345 26.075 24.255C26.075 25.1855 25.7825 25.9923 25.1975 26.6754C24.6125 27.3585 23.865 27.7 22.955 27.7C21.785 27.7 20.6259 27.6025 19.4775 27.4075C18.3291 27.2125 17.17 27.115 16 27.115C14.83 27.115 13.6709 27.2125 12.5225 27.4075C11.3741 27.6025 10.215 27.7 9.045 27.7Z" fill="#01660A"/>
</g>
<defs>
<clipPath id="clip0_177_81">
<rect width="32" height="32" fill="white"/>
</clipPath>
</defs>
</svg>
