<svg width="32" height="32" viewBox="0 0 32 32" fill="none" xmlns="http://www.w3.org/2000/svg">
<g clip-path="url(#clip0_33_103)">
<path d="M32 16.2887C32 7.68425 24.836 0.708008 16 0.708008C7.164 0.708008 0 7.68425 0 16.2887C0 24.066 5.85067 30.5112 13.5 31.6797V20.7928H9.43733V16.2873H13.5V12.8571C13.5 8.95276 15.8893 6.79484 19.544 6.79484C21.2933 6.79484 23.1253 7.09997 23.1253 7.09997V10.9341H21.1067C19.1187 10.9341 18.4987 12.1351 18.4987 13.3673V16.2887H22.936L22.2267 20.794H18.4987V31.681C26.1493 30.5112 32 24.0647 32 16.2887Z" fill="white"/>
</g>
<defs>
<clipPath id="clip0_33_103">
<rect width="32" height="31.1613" fill="white" transform="translate(0 0.612793)"/>
</clipPath>
</defs>
</svg>
