<svg width="32" height="32" viewBox="0 0 32 32" fill="none" xmlns="http://www.w3.org/2000/svg">
<g clip-path="url(#clip0_121_362)">
<path d="M16 0.612793C11.6533 0.612793 11.1107 0.632269 9.404 0.706277C7.7 0.78418 6.54 1.04516 5.52 1.43078C4.468 1.82808 3.57467 2.36172 2.68533 3.22774C1.796 4.09377 1.24667 4.96239 0.84 5.98812C0.444 6.98138 0.174667 8.11098 0.096 9.77032C0.016 11.4323 0 11.9607 0 16.1934C0 20.4262 0.02 20.9546 0.096 22.6166C0.176 24.2746 0.444 25.4055 0.84 26.3988C1.248 27.4219 1.796 28.2931 2.68533 29.1592C3.57467 30.0239 4.46667 30.5601 5.52 30.9561C6.54133 31.3405 7.70133 31.604 9.404 31.6806C11.1107 31.7585 11.6533 31.7741 16 31.7741C20.3467 31.7741 20.8893 31.7546 22.596 31.6806C24.2987 31.6027 25.46 31.3405 26.48 30.9561C27.5307 30.5588 28.4253 30.0239 29.3147 29.1592C30.2027 28.2931 30.7533 27.4258 31.16 26.3988C31.5547 25.4055 31.8253 24.2746 31.904 22.6166C31.984 20.9546 32 20.4262 32 16.1934C32 11.9607 31.98 11.4323 31.904 9.77032C31.824 8.11227 31.5547 6.98009 31.16 5.98812C30.752 4.96369 30.2027 4.09377 29.3147 3.22774C28.4253 2.36172 27.5347 1.82679 26.48 1.43078C25.46 1.04516 24.2987 0.782882 22.596 0.706277C20.8893 0.628374 20.3467 0.612793 16 0.612793ZM16 3.41731C20.2707 3.41731 20.78 3.43808 22.4667 3.5095C24.0267 3.58091 24.8733 3.8328 25.436 4.04833C26.1853 4.33007 26.716 4.66766 27.2787 5.21168C27.8373 5.75701 28.184 6.27506 28.4733 7.00475C28.692 7.55268 28.9533 8.37714 29.024 9.89626C29.1 11.54 29.1173 12.0334 29.1173 16.1934C29.1173 20.3535 29.0973 20.8482 29.0187 22.4906C28.9373 24.0098 28.6773 24.8342 28.4573 25.3821C28.1587 26.1118 27.8187 26.6286 27.2587 27.1765C26.7 27.7205 26.16 28.0581 25.4187 28.3398C24.8587 28.5528 23.9987 28.8072 22.4387 28.8761C20.74 28.9501 20.24 28.9669 15.96 28.9669C11.6787 28.9669 11.1787 28.9475 9.48133 28.8709C7.92 28.7917 7.06 28.5385 6.5 28.3242C5.74133 28.0335 5.22 27.7024 4.66133 27.1571C4.1 26.613 3.74133 26.0871 3.46133 25.3653C3.24133 24.82 2.98267 23.9825 2.90133 22.4634C2.84133 20.8274 2.82 20.3223 2.82 16.174C2.82 12.0243 2.84133 11.518 2.90133 9.86251C2.98267 8.34339 3.24133 7.50723 3.46133 6.96191C3.74133 6.22183 4.1 5.71545 4.66133 5.16884C5.22 4.62481 5.74133 4.27424 6.5 4.00288C7.06 3.78735 7.90133 3.53416 9.46133 3.45626C11.1613 3.39783 11.6613 3.37836 15.94 3.37836L16 3.41731ZM16 8.19278C11.46 8.19278 7.784 11.7763 7.784 16.1934C7.784 20.6144 11.464 24.1941 16 24.1941C20.54 24.1941 24.216 20.6106 24.216 16.1934C24.216 11.7724 20.536 8.19278 16 8.19278ZM16 21.387C13.0533 21.387 10.6667 19.0629 10.6667 16.1934C10.6667 13.324 13.0533 10.9999 16 10.9999C18.9467 10.9999 21.3333 13.324 21.3333 16.1934C21.3333 19.0629 18.9467 21.387 16 21.387ZM26.4613 7.87727C26.4613 8.90949 25.6 9.74695 24.5413 9.74695C23.4813 9.74695 22.6213 8.90819 22.6213 7.87727C22.6213 6.84635 23.4827 6.00889 24.5413 6.00889C25.5987 6.00759 26.4613 6.84635 26.4613 7.87727Z" fill="url(#paint0_linear_121_362)"/>
</g>
<defs>
<linearGradient id="paint0_linear_121_362" x1="16" y1="0.612793" x2="16" y2="31.7741" gradientUnits="userSpaceOnUse">
<stop stop-color="#00FF29"/>
<stop offset="1" stop-color="#07BC16"/>
</linearGradient>
<clipPath id="clip0_121_362">
<rect width="32" height="31.1613" fill="white" transform="translate(0 0.612793)"/>
</clipPath>
</defs>
</svg>
