<svg width="80" height="80" viewBox="0 0 80 80" fill="none" xmlns="http://www.w3.org/2000/svg">
<path d="M23.6875 9.76567C20.1875 10.5 16.1719 12.5782 13.4375 15.1094C9.65625 18.6094 7.8125 22.8438 7.8125 28.0469C7.8125 30.0157 8.01562 32.0157 8.29688 32.9219C8.59375 33.8438 9.65625 34.2032 10.4375 33.6563C11.0469 33.2344 11.1094 32.7969 10.8438 31.0626C10.2344 27.0782 11.0156 22.9219 12.9062 20.0625C15.2969 16.4688 20.125 13.3438 24.4844 12.5782C26.9219 12.1563 29.0312 12.375 31.3906 13.2813C33.7188 14.1875 35.7969 15.8125 38.5469 18.875C39.0156 19.4063 39.2812 19.5625 39.7969 19.6407C40.7812 19.7657 41.3125 19.4688 42.3594 18.1719C45.8125 13.9688 50.7031 11.8125 55.3125 12.4844C58.9375 13.0157 62.7656 15.0313 65.5469 17.875C67.5156 19.8907 68.6562 21.9219 69.3281 24.6251C69.7344 26.2813 69.6875 30.2032 69.2344 32.3438C68.1719 37.3282 65.7188 42.3907 62.2656 46.7188C59.2656 50.4844 51.7188 58.2344 47.7344 61.6563C44.1875 64.6876 40.375 67.4688 39.9688 67.2969C39.6094 67.1719 36.2188 64.6876 34.7031 63.4532C31.9688 61.2501 29 58.5001 25.4688 54.9063C20.1875 49.5313 17.6406 46.5469 15.4219 43.0938C14.9375 42.3438 14.4062 41.6563 14.2344 41.5626C13.6875 41.2813 13.125 41.3907 12.6406 41.8594C11.9219 42.5938 12.0156 43.0938 13.25 45.0001C15.5938 48.5938 18.5 51.9532 24.2969 57.7501C29.7812 63.2501 33.4375 66.3594 37.7969 69.2813C40.1875 70.8751 40.1094 70.8751 42.8906 69.0001C47.0469 66.1876 50.7031 63.0626 55.875 57.9063C63.4062 50.3594 66.8438 46.0157 69.3125 40.8594C70.4688 38.4376 71.1094 36.6563 71.7188 34.1876C73.9375 25.1094 71.3906 17.875 64.25 13.1094C61.5312 11.2813 58.7031 10.1094 56.0625 9.68755C54.1719 9.37505 51.1875 9.56255 49.4531 10.0782C46.5625 10.9375 43.9531 12.5313 41.5156 14.9532L40.1406 16.3125L38.8594 15.0469C37.0312 13.2344 35.4844 12.125 33.5156 11.1563C31.0938 9.9688 29.8125 9.6563 27.0312 9.5938C25.4844 9.56255 24.4219 9.60942 23.6875 9.76567Z" fill="#024007"/>
<path d="M25.2031 22.4219C24.7031 22.6406 24.5938 22.8906 20 33.7812L19.0312 36.0937H13.7188H8.40625L7.95312 36.5469C7.34375 37.1719 7.34375 37.8281 7.95312 38.4531L8.40625 38.9062H14.4219C20.125 38.9062 20.4531 38.8906 20.8125 38.6094C21.0781 38.3906 21.8125 36.8281 23.2812 33.3594C24.4219 30.6562 25.3906 28.4531 25.4219 28.4844C25.4375 28.5156 26.5625 33.25 27.8906 39C29.2344 44.75 30.3906 49.7187 30.4844 50.0312C30.7031 50.8437 31.1719 51.25 31.9062 51.25C33.0156 51.25 33 51.2969 35.3125 42.625C36.4688 38.2656 37.4688 34.75 37.5156 34.8125C37.5781 34.875 37.7812 35.625 37.9688 36.4844C38.4062 38.4062 38.6094 38.8281 39.2344 39.0469C39.5625 39.1562 41.5156 39.2187 44.9062 39.2187C49.5156 39.2187 50.1406 39.1875 50.625 38.9375C51.2969 38.6094 51.5469 37.9062 51.25 37.1719C50.8906 36.3125 50.5312 36.25 45.4375 36.25H40.8594L39.875 32.2031C38.7656 27.6094 38.6406 27.3437 37.5938 27.3437C36.4219 27.3437 36.4531 27.2656 34.1719 35.8281C33.0312 40.0937 32.0625 43.625 32.0156 43.6562C31.9688 43.7031 30.9219 39.4062 29.7031 34.0937C27.2031 23.2344 27.125 22.9219 26.8125 22.6719C26.3906 22.3281 25.7031 22.2187 25.2031 22.4219Z" fill="#024007"/>
</svg>
