<svg width="80" height="80" viewBox="0 0 80 80" fill="none" xmlns="http://www.w3.org/2000/svg">
<g clip-path="url(#clip0_152_212)">
<path d="M49.5002 1.81975C45.0002 3.8218 40.3002 8.82693 39.4002 12.5307C39.0002 13.9322 39.0002 17.4358 39.2002 20.4388C40.0002 30.1488 46.9002 36.3552 57.0002 36.3552C63.9002 36.4553 69.0002 33.5523 72.5002 27.5461C75.2002 22.9414 75.8002 16.2345 74.0002 11.5297C72.8002 8.32642 70.5002 8.02611 71.4002 11.1293C73.3002 17.4358 73.2002 20.8393 71.1002 25.1437C65.7002 36.3552 49.7002 37.0559 43.5002 26.445C36.0002 13.6319 47.7002 -1.38354 61.7002 3.22118C67.0002 4.92293 68.6002 3.52149 63.6002 1.41934C58.9002 -0.582714 54.4002 -0.482613 49.5002 1.81975Z" fill="#024007"/>
<path d="M68.1999 5.82394C68.5999 7.12528 69.9999 7.42558 70.0999 6.22435C70.0999 5.82394 69.5999 5.32343 68.9999 5.02312C68.2999 4.82292 67.8999 5.22333 68.1999 5.82394Z" fill="#024007"/>
<path d="M51.9998 10.3285C51.9998 12.2305 51.3998 12.8311 49.2998 13.1314C46.6998 13.4317 46.4998 13.8321 46.1998 18.1365C45.8998 22.5411 45.9998 22.8414 48.6998 23.1417C50.8998 23.3419 51.5998 24.0426 51.7998 26.1448C52.0998 28.7474 52.3998 28.9476 57.0998 28.9476C61.8998 28.9476 61.9998 28.8475 61.9998 25.9446C61.9998 23.442 62.3998 22.9415 64.4998 22.9415C66.7998 22.9415 66.9998 22.6412 66.9998 17.9363C66.9998 13.2315 66.7998 12.9312 64.4998 12.9312C62.4998 12.9312 61.9998 12.4307 61.9998 10.4286C61.9998 8.12628 61.6998 7.92607 56.9998 7.92607C52.3998 7.92607 51.9998 8.12628 51.9998 10.3285ZM59.9998 12.9312C59.9998 15.4338 60.3998 15.9343 62.4998 15.9343C64.4998 15.9343 64.9998 16.4348 64.9998 18.4369C64.9998 20.4389 64.4998 20.9394 62.5998 20.9394C60.6998 20.9394 60.0998 21.54 59.7998 23.6422C59.5998 25.8444 58.9998 26.4451 56.9998 26.4451C54.9998 26.4451 54.3998 25.8444 54.1998 23.6422C53.8998 21.54 53.2998 20.9394 51.3998 20.9394C49.4998 20.9394 48.9998 20.4389 48.9998 18.4369C48.9998 16.4348 49.4998 15.9343 51.4998 15.9343C53.5998 15.9343 53.9998 15.4338 53.9998 12.9312C53.9998 10.2284 54.2998 9.92813 56.9998 9.92813C59.6998 9.92813 59.9998 10.2284 59.9998 12.9312Z" fill="#024007"/>
<path d="M1.2 35.154C0.4 35.9548 0 40.96 0 52.1714C0 73.2931 1.9 73.2931 2.2 52.1714C2.4 42.3614 2.9 36.5554 3.5 36.6555C4.1 36.7556 4.6 37.7567 4.8 38.9579C5.3 42.2613 7.2 41.1602 6.8 37.6566C6.5 34.153 3.5 32.8516 1.2 35.154Z" fill="#024007"/>
<path d="M4.8 59.9795C4.6 70.29 4.1 77.097 3.5 77.2972C3 77.3973 2.4 75.7957 2.2 73.7936C1.7 68.1879 0 69.1889 0 74.9949V80H3.5C7 80 7 80 7 75.4954V70.9908H18C27.1 70.9908 29 70.6905 29 69.4892C29 68.288 27.1 67.9877 18 67.9877C7.7 67.9877 7 67.8876 7 65.9856C7 63.9836 7.7 63.9836 40 63.9836C72.3 63.9836 73 63.9836 73 65.9856C73 67.8876 72.3 67.9877 52.5 67.9877C34.9 67.9877 32 68.1879 32 69.4892C32 70.7906 34.9 70.9908 52.5 70.9908H73V75.4954C73 80 73 80 76.5 80H80V69.9897C80 57.577 78.2 56.576 77.8 68.7885C77.3 82.7028 75.5 78.8989 75.5 63.9836C75.5 56.1756 75.9 50.8701 76.5 50.6699C77.1 50.5698 77.6 51.9713 77.8 53.673C78.2 57.9774 80 57.8773 80 53.5729C80 48.0673 74.6 45.9651 73.3 50.9702C73 52.2716 71.9 52.9723 70.4 52.9723C69.1 52.9723 68 53.3727 68 53.9733C68 54.4738 69.1 54.9743 70.5 54.9743C72.7 54.9743 73 55.3747 73 58.4779C73 61.7813 72.8 61.9815 69.5 61.9815H66V54.0734C66 42.962 66 42.962 49.6 42.962C40.7 42.962 36 43.3624 35.2 44.1632C34.5 44.864 34 48.5678 34 53.673V61.9815H20.5H7V58.4779V54.9743H19C26.3 54.9743 31 54.5739 31 53.9733C31 53.3727 30.1 52.9723 29 52.9723C27.5 52.9723 27 52.2716 27 50.1694C27 45.9651 25.3 44.9641 18.3 44.9641C12.8 44.9641 11.9 45.2644 10.5 47.3665C9.7 48.6679 9.2 50.4697 9.6 51.3706C10 52.4718 9.7 52.9723 8.6 52.9723C7.3 52.9723 7 51.8712 7 47.9671C7 45.1643 6.6 42.962 6 42.962C5.4 42.962 4.9 49.769 4.8 59.9795ZM43 53.9733V61.9815H39.5H36V53.9733V45.9651H39.5H43V53.9733ZM54 53.9733V61.9815H50H46V53.9733V45.9651H50H54V53.9733ZM63.8 54.1735L64.1 61.9815H60H56V53.8732V45.865L59.8 46.1653L63.5 46.4656L63.8 54.1735ZM24.6 48.4677C25.6 50.9702 23 52.9723 19 52.9723C14 52.9723 12 52.1715 12 50.0693C12 47.3665 12.9 46.9661 18.7 46.9661C22.6 46.9661 24.2 47.3665 24.6 48.4677Z" fill="#024007"/>
<path d="M11 58.478C11 59.2788 11.5 59.9795 12 59.9795C12.6 59.9795 13 59.2788 13 58.478C13 57.6771 12.6 56.9764 12 56.9764C11.5 56.9764 11 57.6771 11 58.478Z" fill="#024007"/>
<path d="M16 58.478C16 59.2788 16.5 59.9795 17 59.9795C17.6 59.9795 18 59.2788 18 58.478C18 57.6771 17.6 56.9764 17 56.9764C16.5 56.9764 16 57.6771 16 58.478Z" fill="#024007"/>
<path d="M20.5001 57.8773C19.8001 59.1787 22.2001 60.2798 24.5001 59.7793C25.4001 59.6792 26.1001 58.9785 26.1001 58.478C26.1001 57.0765 21.3001 56.576 20.5001 57.8773Z" fill="#024007"/>
</g>
<defs>
<clipPath id="clip0_152_212">
<rect width="80" height="80" fill="white"/>
</clipPath>
</defs>
</svg>
