<svg width="60" height="60" viewBox="0 0 60 60" fill="none" xmlns="http://www.w3.org/2000/svg">
<path d="M18.125 7.5C20.5 7.5 22.6979 8.0625 24.7188 9.1875C26.7396 10.3125 28.5 11.9375 30 14.0625C31.75 11.8125 33.6042 10.1562 35.5625 9.09375C37.5208 8.03125 39.625 7.5 41.875 7.5C45.5833 7.5 48.6979 8.76042 51.2188 11.2812C53.7396 13.8021 55 16.9375 55 20.6875C55 21.3125 54.9688 21.9271 54.9062 22.5312C54.8438 23.1354 54.7292 23.75 54.5625 24.375H50.6875C50.8958 23.75 51.0417 23.1354 51.125 22.5312C51.2083 21.9271 51.25 21.3125 51.25 20.6875C51.25 17.9375 50.375 15.6771 48.625 13.9062C46.875 12.1354 44.625 11.25 41.875 11.25C39.75 11.25 37.7708 11.9062 35.9375 13.2188C34.1042 14.5312 32.625 16.375 31.5 18.75H28.4375C27.3542 16.4167 25.8958 14.5833 24.0625 13.25C22.2292 11.9167 20.25 11.25 18.125 11.25C15.375 11.25 13.125 12.1354 11.375 13.9062C9.625 15.6771 8.75 17.9375 8.75 20.6875C8.75 21.3125 8.79167 21.9271 8.875 22.5312C8.95833 23.1354 9.10417 23.75 9.3125 24.375H5.4375C5.27083 23.75 5.15625 23.1354 5.09375 22.5312C5.03125 21.9271 5 21.3125 5 20.6875C5 16.9375 6.26042 13.8021 8.78125 11.2812C11.3021 8.76042 14.4167 7.5 18.125 7.5ZM12 35.625H16.875C18.4583 37.375 20.3229 39.2812 22.4688 41.3438C24.6146 43.4062 27.125 45.75 30 48.375C32.875 45.75 35.375 43.4062 37.5 41.3438C39.625 39.2812 41.4792 37.375 43.0625 35.625H48C46.25 37.6667 44.125 39.9271 41.625 42.4062C39.125 44.8854 36.1042 47.75 32.5625 51L30 53.3125L27.4375 51C23.8958 47.75 20.875 44.8854 18.375 42.4062C15.875 39.9271 13.75 37.6667 12 35.625ZM27.625 39.375C28 39.375 28.3333 39.2604 28.625 39.0312C28.9167 38.8021 29.125 38.5 29.25 38.125L33.0625 26.8125L35.9375 31.0625C36.1458 31.3125 36.375 31.5104 36.625 31.6562C36.875 31.8021 37.1667 31.875 37.5 31.875H56.875V28.125H38.5625L34.0625 21.5C33.8542 21.2083 33.6042 21 33.3125 20.875C33.0208 20.75 32.7083 20.6875 32.375 20.6875C32 20.6875 31.6562 20.8021 31.3438 21.0312C31.0312 21.2604 30.8125 21.5625 30.6875 21.9375L26.9375 33.25L24 28.9375C23.7917 28.6875 23.5729 28.4896 23.3438 28.3438C23.1146 28.1979 22.8333 28.125 22.5 28.125H3.125V31.875H21.375L25.875 38.5625C26.0833 38.8542 26.3438 39.0625 26.6562 39.1875C26.9688 39.3125 27.2917 39.375 27.625 39.375Z" fill="#01660A"/>
</svg>
