<svg width="80" height="80" viewBox="0 0 80 80" fill="none" xmlns="http://www.w3.org/2000/svg">
<g clip-path="url(#clip0_152_253)">
<path d="M17.3566 1.49999C15.6608 2.29999 13.1671 4.49999 12.0698 6.49999C10.0748 9.79999 9.67581 9.99999 4.98753 9.99999H0L0.598504 14.7C1.79551 23 1.69576 22.9 9.47631 25.4C10.8728 25.8 11.1721 27.2 11.1721 33.1C11.1721 39.6 11.6708 41.3 16.0599 51C18.7531 56.9 21.5461 63.6 22.2444 65.9C23.3416 69.7 23.3416 70.2 21.1471 72.5C18.9526 74.8 18.9526 75 20.5486 77.5L22.1446 80H51.0723H80V70.2C80 59.4 78.5037 53 74.9127 47.8C72.9177 45.1 72.5187 43.2 72.3192 35.5C71.8204 17.3 72.0199 18.8 69.8254 19.3C68.6284 19.7 66.9327 19.1 65.6359 17.9C61.3466 13.7 57.7556 12.5 49.7756 12.5H42.0948L38.6035 7.29999C34.9127 1.69999 31.5212 -7.15256e-06 24.7382 -7.15256e-06C22.4439 0.0999929 19.1521 0.699993 17.3566 1.49999ZM32.7182 4.49999C34.5137 5.89999 34.5137 5.89999 31.6209 5.99999C27.5312 5.99999 26.2344 6.99999 25.1372 11.1C23.4414 16.9 23.9401 23.4 26.2344 26.4C27.7307 28.3 28.3292 30.7 28.5287 35.2C28.6284 38.7 29.5262 42.9 30.3242 44.6C32.419 48.5 37.606 53.5 41.0973 55C43.4913 56 43.8903 56.8 44.4888 62.2C44.788 65.6 45.0873 70.3 45.0873 72.6C45.0873 76.6 44.8878 77 42.5935 77C40.0998 77 40.0998 76.9 40.0998 68.7C40.0998 62.2 39.7007 60 38.1047 58C36.01 55.2 34.015 56.1 35.9102 59C36.6085 60.1 37.1072 64.4 37.1072 69V77H34.2145C30.9227 77 29.3267 75.4 31.0224 73.7C31.6209 73.1 32.1197 70.5 32.1197 67.9C32.1197 63.4 31.8204 63 25.8354 57.7C17.6559 50.5 14.1646 43.1 13.2668 31.6L12.6683 23.7L8.4788 22.2C6.08479 21.5 4.18953 20.2 4.18953 19.5C4.18953 17.9 8.77805 13 10.1746 13C10.7731 13 12.2693 11.2 13.6658 9.09999C14.9626 6.89999 16.8579 4.69999 17.8554 4.09999C20.5486 2.49999 30.4239 2.79999 32.7182 4.49999ZM34.9127 13.7C35.1122 17 34.6135 18.7 32.2195 22L29.2269 26.1L27.6309 23.6C26.3342 21.7 26.1347 20 26.6334 16.8C27.8304 9.19999 28.0299 8.89999 31.4214 9.19999C34.414 9.49999 34.6135 9.79999 34.9127 13.7ZM39.5012 15.1C38.404 16.9 37.1072 15.9 37.1072 13.2C37.207 10.6 37.207 10.6 38.6035 12.4C39.4015 13.4 39.8005 14.7 39.5012 15.1ZM5.18703 13.4C5.18703 13.7 4.78803 14.2 4.18953 14.5C3.69077 14.8 3.19202 14.6 3.19202 14.1C3.19202 13.5 3.69077 13 4.18953 13C4.78803 13 5.18703 13.2 5.18703 13.4ZM59.6509 17C66.9327 20.6 67.3317 21.6 64.5387 28.5C62.4439 33.9 61.8454 34.5 58.9526 34.8L55.7606 35.1L56.3591 30.8C56.7581 28.4 57.3566 24.8 57.6559 22.7C58.0549 20.3 57.9551 19 57.2569 19C55.8603 19 51.6708 26.2 50.0748 31.2C48.9776 34.9 48.7781 35 44.389 35H39.8005L40.399 30.7C40.798 28.4 41.3965 24.8 41.6958 22.7C42.0948 20.3 41.995 19 41.2968 19C39.9002 19 35.7107 26.2 34.1147 31.2C32.818 35.5 31.1222 36.2 31.1222 32.5C31.1222 26.6 36.5087 19.1 42.5935 16.4C47.0823 14.4 54.7631 14.7 59.6509 17ZM66.4339 37.4C66.0349 40.5 65.3367 43 64.7382 43C64.2394 43 64.0399 41.2 64.5387 38.4C65.8354 29.3 67.4314 28.4 66.4339 37.4ZM71.0224 33.1C71.0224 33.6 70.6234 34 70.0249 34C69.5262 34 69.0274 33.3 69.0274 32.4C69.0274 31.6 69.5262 31.2 70.0249 31.5C70.6234 31.8 71.0224 32.5 71.0224 33.1ZM37.1072 37.5C37.1072 40.5 36.7082 43 36.1097 43C35.0125 43 34.813 39.7 35.7107 35.1C36.6085 30.5 37.1072 31.3 37.1072 37.5ZM53.0673 37.5C53.0673 40.5 52.6683 43 52.0698 43C50.9726 43 50.7731 39.7 51.6708 35.1C52.5686 30.5 53.0673 31.3 53.0673 37.5ZM31.8204 40.2C31.5212 40.9 31.3217 40.4 31.3217 39C31.3217 37.6 31.5212 37.1 31.8204 37.7C32.02 38.4 32.02 39.6 31.8204 40.2ZM48.0798 40.5C48.0798 43.5 49.9751 46 52.4688 46C53.9651 46 56.0599 42.5 56.0599 39.9C56.0599 37.3 56.3591 37 59.1521 37C61.9451 37 62.1446 37.2 61.5461 39.8C61.1471 41.9 61.4464 43.1 62.9426 44.4C64.0399 45.4 65.4364 45.9 65.9352 45.5C68.6284 43.9 66.6334 47.2 63.3416 49.9C56.4589 55.6 47.4813 56 39.4015 51.1C36.01 49 32.818 44.6 35.4115 45.6C37.5062 46.4 40.0998 43.3 40.0998 39.9C40.0998 37.2 40.2993 37 44.0898 37C47.98 37 48.0798 37.1 48.0798 40.5ZM69.7257 40.2C69.4264 40.9 69.2269 40.4 69.2269 39C69.2269 37.6 69.4264 37.1 69.7257 37.7C69.9252 38.4 69.9252 39.6 69.7257 40.2ZM72.818 49.7C76.01 54.3 77.0075 58.9 77.0075 68.1V77H66.5337H56.0599V74.5C56.0599 72.2 56.4589 72 60.0499 72C62.2444 72 64.0399 71.7 64.0399 71.2C64.0399 70.8 62.6434 68.5 61.0474 66.1C56.8579 59.9 57.0574 57.1 62.0449 54.2C64.1397 53 66.7332 50.9 67.7307 49.5C70.0249 46.4 70.5237 46.4 72.818 49.7ZM55.0623 59C55.0623 60.7 54.3641 61 51.0723 61C47.7805 61 47.0823 60.7 47.0823 59C47.0823 57.3 47.7805 57 51.0723 57C54.3641 57 55.0623 57.3 55.0623 59ZM29.1272 68.1C29.1272 70.2 28.6284 72.2 28.0299 72.6C27.4314 72.9 27.1322 74.1 27.4314 75.1C27.8304 76.5 27.4314 77 25.7357 77C22.5436 77 21.8454 75.9 23.7406 73.9C25.3367 72.1 25.3367 66.6 23.6409 61C22.8429 58.5 22.8429 58.5 26.0349 61.4C28.4289 63.7 29.1272 65.2 29.1272 68.1ZM53.0673 70.5C53.0673 76.8 52.9676 77 50.5736 77C48.1796 77 48.0798 76.8 48.0798 70.5C48.0798 64.2 48.1796 64 50.5736 64C52.9676 64 53.0673 64.2 53.0673 70.5ZM57.9551 66.7C58.9526 68.6 58.8529 69 57.5561 69C56.5586 69 56.0599 68.1 56.0599 66.3C56.0599 63.4 56.2594 63.4 57.9551 66.7Z" fill="#024007"/>
<path d="M17.4565 7.70001C15.661 8.40001 15.8605 11.7 17.7558 12.4C19.8506 13.2 21.1473 12.3 21.1473 10C21.1473 8.10001 19.4516 7.00001 17.4565 7.70001Z" fill="#024007"/>
<path d="M43.0923 41.5C43.0923 42.3 43.591 43 44.0898 43C44.6883 43 45.0873 42.3 45.0873 41.5C45.0873 40.7 44.6883 40 44.0898 40C43.591 40 43.0923 40.7 43.0923 41.5Z" fill="#024007"/>
<path d="M57.0576 44C57.0576 44.5 57.7559 45 58.5539 45C59.3519 45 60.0501 44.5 60.0501 44C60.0501 43.4 59.3519 43 58.5539 43C57.7559 43 57.0576 43.4 57.0576 44Z" fill="#024007"/>
<path d="M43.0923 48C43.0923 48.5 43.591 49 44.0898 49C44.6883 49 45.0873 48.5 45.0873 48C45.0873 47.4 44.6883 47 44.0898 47C43.591 47 43.0923 47.4 43.0923 48Z" fill="#024007"/>
<path d="M55.0625 48C55.0625 48.5 55.5613 49 56.06 49C56.6585 49 57.0575 48.5 57.0575 48C57.0575 47.4 56.6585 47 56.06 47C55.5613 47 55.0625 47.4 55.0625 48Z" fill="#024007"/>
<path d="M60.0503 48C60.0503 48.5 60.7485 49 61.5466 49C62.3446 49 63.0428 48.5 63.0428 48C63.0428 47.4 62.3446 47 61.5466 47C60.7485 47 60.0503 47.4 60.0503 48Z" fill="#024007"/>
</g>
<defs>
<clipPath id="clip0_152_253">
<rect width="80" height="80" fill="white"/>
</clipPath>
</defs>
</svg>
