<svg width="60" height="60" viewBox="0 0 60 60" fill="none" xmlns="http://www.w3.org/2000/svg">
<path d="M5 24.375V10H55V24.375H51.25V13.75H8.75V24.375H5ZM5 50V35.625H8.75V46.25H51.25V35.625H55V50H5ZM24.9881 41.875C25.3294 41.875 25.6583 41.7917 25.975 41.625C26.2917 41.4583 26.5292 41.2083 26.6875 40.875L35 24.25L38.3125 30.875C38.4688 31.2083 38.7031 31.4583 39.0156 31.625C39.3281 31.7917 39.6562 31.875 40 31.875H55V28.125H41.1875L36.6875 19.1875C36.3419 18.5625 35.7763 18.25 34.9907 18.25C34.2052 18.25 33.6458 18.5625 33.3125 19.1875L25 35.75L21.6875 29.125C21.5312 28.7917 21.2969 28.5417 20.9844 28.375C20.6719 28.2083 20.3438 28.125 20 28.125H5V31.875H18.8125L23.3125 40.875C23.4676 41.2083 23.7003 41.4583 24.0106 41.625C24.3209 41.7917 24.6467 41.875 24.9881 41.875Z" fill="#01660A"/>
</svg>
