<svg width="21" height="20" viewBox="0 0 21 20" fill="none" xmlns="http://www.w3.org/2000/svg">
<path d="M17.167 3.33301H3.83299C2.91699 3.33301 2.17499 4.08301 2.17499 5.00001L2.16699 15C2.16699 15.917 2.91699 16.667 3.83299 16.667H17.167C18.083 16.667 18.833 15.917 18.833 15V5.00001C18.833 4.08301 18.083 3.33301 17.167 3.33301ZM16.833 6.87501L10.942 10.559C10.8091 10.6408 10.6561 10.6842 10.5 10.6842C10.3439 10.6842 10.1909 10.6408 10.058 10.559L4.16699 6.87501C4.0846 6.82751 4.01261 6.76391 3.95534 6.68798C3.89807 6.61206 3.85668 6.52537 3.83364 6.4331C3.8106 6.34083 3.80639 6.24486 3.82126 6.15093C3.83613 6.057 3.86977 5.96702 3.92017 5.88637C3.97058 5.80572 4.03671 5.73606 4.11464 5.68153C4.19256 5.627 4.28066 5.58874 4.3737 5.56901C4.46673 5.54928 4.56279 5.5485 4.65613 5.56671C4.74948 5.58492 4.8382 5.62176 4.91699 5.67501L10.5 9.16701L16.083 5.67501C16.1618 5.62176 16.2505 5.58492 16.3439 5.56671C16.4372 5.5485 16.5332 5.54928 16.6263 5.56901C16.7193 5.58874 16.8074 5.627 16.8853 5.68153C16.9633 5.73606 17.0294 5.80572 17.0798 5.88637C17.1302 5.96702 17.1639 6.057 17.1787 6.15093C17.1936 6.24486 17.1894 6.34083 17.1663 6.4331C17.1433 6.52537 17.1019 6.61206 17.0446 6.68798C16.9874 6.76391 16.9154 6.82751 16.833 6.87501Z" fill="url(#paint0_linear_121_331)"/>
<defs>
<linearGradient id="paint0_linear_121_331" x1="10.5" y1="3.33301" x2="10.5" y2="16.667" gradientUnits="userSpaceOnUse">
<stop stop-color="#00FF29"/>
<stop offset="1" stop-color="#07BC16"/>
</linearGradient>
</defs>
</svg>
