<svg width="80" height="80" viewBox="0 0 80 80" fill="none" xmlns="http://www.w3.org/2000/svg">
<path d="M24.2002 3.70002C23.6002 4.80003 23.6002 7.90002 24.2002 11.6L25.2002 17.7L20.2002 22.4C13.0002 29.1 10.7002 34.6 10.7002 44.5C10.7002 58.9 16.4002 68.5 25.0002 68.5C28.7002 68.5 29.0002 68.7 29.6002 71.8C30.1002 74.4 31.0002 75.5 33.6002 76.6C37.6002 78.3 41.6002 78.4 45.8002 76.9C48.3002 76.1 49.2002 75 50.0002 72C51.0002 68.4 51.2002 68.2 54.3002 68.6C64.7002 70.2 73.1002 51.1 68.6002 35.9C66.8002 29.6 61.6002 22.2 57.6002 20C54.9002 18.6 54.9002 18.3 55.5002 13.1C55.9002 10.1 56.4002 7.20002 56.6002 6.60002C56.9002 5.90002 56.4002 4.60002 55.7002 3.60002C54.4002 1.80003 54.1002 1.80003 47.2002 3.60002C40.3002 5.40002 39.7002 5.40002 33.3002 3.70002C25.0002 1.60002 25.3002 1.60002 24.2002 3.70002ZM40.0002 6.40002C44.1002 6.40002 49.0002 6.00002 50.9002 5.60002L54.3002 4.70002L53.5002 9.50002C52.2002 18.3 50.8002 21.4 47.0002 23.2C39.6002 26.9 30.4002 24.3 28.3002 17.9C27.7002 16 26.9002 12.2 26.5002 9.50002L25.7002 4.70002L29.1002 5.60002C31.0002 6.00002 35.9002 6.40002 40.0002 6.40002ZM65.0002 33.3C69.1002 42.7 66.6002 60.3 60.7002 64.5C55.8002 67.9 48.6002 65.3 46.0002 59C44.7002 55.8 43.0002 55 43.0002 57.5C43.0002 59.7 37.3002 59.5 36.8002 57.3C36.5002 55.9 35.7002 56.6 33.7002 59.7C30.6002 64.5 28.4002 66 24.2002 66C14.6002 66 9.3002 42.6 16.2002 30.9C19.0002 26.3 23.6002 21.3 24.5002 22.2C24.8002 22.4 25.5002 25.3 26.1002 28.6C27.6002 37.3 37.0002 56.5 37.0002 51C37.0002 50.4 38.4002 50 40.0002 50C41.7002 50 43.0002 50.4 43.0002 51C43.0002 53.8 45.1002 51.2 48.8002 44.1C51.5002 38.8 53.3002 33.6 54.1002 28.6L55.4002 21L59.1002 24.6C61.2002 26.6 63.8002 30.5 65.0002 33.3ZM31.6002 25.5C35.3002 27.4 44.0002 27.4 48.6002 25.5L52.1002 24L51.8002 26.8C51.6002 28.9 50.5002 30 47.0002 31.7C44.6002 33 41.4002 34 40.0002 34C38.6002 34 35.4002 33 33.0002 31.7C29.5002 30 28.4002 28.9 28.2002 26.7C27.8002 23.5 27.9002 23.5 31.6002 25.5ZM40.0002 35.5C43.0002 35.5 46.5002 35.1 47.8002 34.7C49.5002 34 50.0002 34.2 50.0002 35.5C50.0002 37.7 43.6002 40.2 38.9002 39.9C36.8002 39.7 35.1002 40 35.3002 40.5C35.4002 41.1 38.1002 41.5 41.3002 41.5C44.4002 41.5 47.0002 41.7 47.0002 42C47.0002 42.3 46.3002 43.6 45.4002 44.8C43.9002 47 40.0002 47.7 36.5002 46.4C34.9002 45.8 31.9002 40.6 30.5002 36.2C29.9002 34 30.0002 33.9 32.2002 34.7C33.4002 35.1 37.0002 35.5 40.0002 35.5ZM43.5002 62C47.4002 63.5 45.6002 65 39.9002 65C37.2002 65 35.0002 65.4 35.0002 66C35.0002 66.6 37.8002 67 41.5002 67C47.9002 67 50.1002 68.2 45.8002 69.4C44.5002 69.7 41.6002 70 39.3002 70C36.9002 70 35.0002 70.4 35.0002 71C35.0002 71.6 37.9002 72 41.6002 72C47.4002 72 48.1002 72.2 47.0002 73.5C45.5002 75.3 35.0002 75.6 33.2002 73.8C31.5002 72.1 31.8002 66.8 33.8002 64.4C36.5002 61 39.2002 60.4 43.5002 62Z" fill="#024007"/>
</svg>
