<svg width="21" height="20" viewBox="0 0 21 20" fill="none" xmlns="http://www.w3.org/2000/svg">
<path d="M10.167 1C6.667 1 3.5 3.683 3.5 7.833C3.5 10.483 5.542 13.6 9.617 17.191C9.77099 17.3239 9.96761 17.397 10.171 17.397C10.3744 17.397 10.571 17.3239 10.725 17.191C14.792 13.6 16.834 10.483 16.834 7.833C16.834 3.683 13.667 1 10.167 1ZM10.167 9.333C9.25 9.333 8.5 8.583 8.5 7.666C8.5 6.749 9.25 5.999 10.167 5.999C11.084 5.999 11.834 6.749 11.834 7.666C11.834 8.583 11.084 9.333 10.167 9.333Z" fill="url(#paint0_linear_121_327)"/>
<defs>
<linearGradient id="paint0_linear_121_327" x1="10.167" y1="1" x2="10.167" y2="17.397" gradientUnits="userSpaceOnUse">
<stop stop-color="#00FF29"/>
<stop offset="1" stop-color="#07BC16"/>
</linearGradient>
</defs>
</svg>
