<svg width="80" height="80" viewBox="0 0 80 80" fill="none" xmlns="http://www.w3.org/2000/svg">
<path d="M37.969 12.0469C35.7971 12.3751 33.469 13.4063 31.7971 14.7813L30.9377 15.4688L30.0471 15.2344C26.7971 14.3907 23.2034 16.0001 21.3909 19.1251L20.8596 20.0469L19.6096 20.3438C14.6721 21.5001 11.1409 25.6876 10.8284 30.7344L10.7346 32.1563L10.2502 32.2501C8.56274 32.5626 6.48461 34.2032 5.75024 35.7813C4.79711 37.8126 2.67211 46.2969 1.57836 52.4219C0.656485 57.5782 -0.0778897 63.5469 0.0627353 64.6563C0.187735 65.5938 0.656485 66.4376 1.43774 67.0938C2.65649 68.1563 2.50024 68.1407 14.1252 68.0938L24.5627 68.0469L24.9534 67.5938C25.2659 67.2188 25.3284 67.0313 25.2502 66.5782C25.0784 65.4844 25.8284 65.5626 14.0471 65.4688L3.40649 65.3907L3.01586 64.9376C2.65649 64.5157 2.64086 64.3907 2.71899 63.4532C3.39086 56.6251 4.82836 48.7188 6.62524 42.0313C8.07836 36.6094 8.34399 36.0313 9.90649 35.2344L10.844 34.7657L39.5159 34.7188C59.2971 34.7032 68.4534 34.7344 69.0002 34.8438C70.1096 35.0782 71.1409 35.7657 71.6409 36.6094C72.9846 38.9219 75.7815 51.3594 76.8596 59.8438C77.4221 64.3438 77.4221 64.4219 76.9846 64.9376L76.594 65.3907L64.2659 65.4376C56.094 65.4688 51.7659 65.4376 51.3909 65.3282C50.7971 65.1407 50.6409 64.9376 50.1721 63.5626C49.5784 61.8126 48.3909 60.5938 46.7971 60.1094C45.8909 59.8438 34.094 59.8438 33.1721 60.1251C31.6096 60.5938 30.3127 61.9376 29.7815 63.6563C29.344 65.0157 29.7659 65.9376 30.8284 65.9376C31.5471 65.9376 32.0002 65.5626 32.2034 64.7969C32.2971 64.4376 32.5159 63.9063 32.6877 63.6251C33.2815 62.6563 33.2659 62.6563 40.0159 62.6563C45.8752 62.6563 46.1565 62.6719 46.6409 62.9688C47.1877 63.3126 47.5315 63.9063 47.9065 65.1407C48.219 66.2188 48.8752 67.0469 49.8596 67.5782L50.7034 68.0469L63.3596 68.0938C72.2815 68.1251 76.2502 68.0938 76.8284 67.9688C78.344 67.6407 79.719 66.2188 79.9377 64.7501C80.1252 63.4376 79.0784 55.6251 77.9534 49.9219C76.844 44.3751 75.0002 37.3594 74.2502 35.7969C73.3596 33.9844 71.4846 32.5782 69.469 32.2032C68.8284 32.0782 61.8909 32.0313 47.1565 32.0313C31.7346 32.0313 25.7815 31.9844 25.7815 31.8594C25.7815 31.4376 26.344 30.5626 27.0002 30.0001C27.969 29.1407 29.0315 28.8438 30.6096 28.9844C31.7659 29.0782 31.8127 29.0782 32.2346 28.6563C32.469 28.4376 32.6565 28.1251 32.6565 27.9688C32.6565 27.2501 33.219 26.1251 33.9846 25.3594C35.3596 23.9844 37.219 23.7032 38.9534 24.6094C40.1877 25.2501 41.0784 25.0938 41.3909 24.2032C41.6409 23.4532 41.3127 22.8282 40.3596 22.3126C38.219 21.1407 35.6877 21.1407 33.5627 22.2969C32.5471 22.8438 31.1721 24.3282 30.6877 25.3907C30.2971 26.2188 30.2659 26.2501 29.6565 26.2501C28.8596 26.2501 27.3127 26.6407 26.5002 27.0626C25.6877 27.4688 24.2815 28.8126 23.8284 29.6094C23.6252 29.9532 23.344 30.6407 23.2034 31.1251L22.9534 32.0313H18.1721H13.3909L13.4846 30.8126C13.7502 27.4376 15.8127 24.6094 18.9065 23.3438C19.4065 23.1407 20.4377 22.8594 21.2034 22.7344C22.719 22.4688 22.9377 22.3126 23.344 21.2657C24.4377 18.4376 27.2502 17.0157 29.844 17.9844C31.469 18.5938 31.5784 18.5782 32.6877 17.5469C34.5159 15.8594 36.2346 15.0313 38.6096 14.6876C40.4846 14.4063 42.6877 14.7657 44.4221 15.6407C45.6252 16.2344 46.1409 16.5938 47.2346 17.6251C48.2502 18.5782 48.3596 18.5938 50.0784 17.9688C52.6252 17.0313 55.4221 18.4844 56.4846 21.2813C56.6252 21.6876 56.8752 22.1251 57.0159 22.2501C57.1721 22.3907 57.8909 22.6094 58.6409 22.7344C59.3909 22.8594 60.4377 23.1407 60.9846 23.3594C62.2971 23.8907 63.8596 25.1094 64.6096 26.1876C65.5471 27.5469 65.844 27.8126 66.4534 27.8126C67.5471 27.8126 68.0784 26.7657 67.5159 25.6876C66.2034 23.2344 63.2346 21.0469 60.219 20.3438L58.9846 20.0469L58.4377 19.1251C56.594 15.9844 53.0627 14.3907 49.7971 15.2344L48.9065 15.4688L47.9377 14.6876C46.719 13.7032 44.7971 12.7501 43.2502 12.3594C41.7815 11.9844 39.344 11.8438 37.969 12.0469Z" fill="#024007"/>
<path d="M50.0316 23.4375C48.9691 23.6562 47.5316 24.5156 46.7816 25.375C46.0472 26.2188 45.4534 27.5469 45.4222 28.3906C45.4066 29.1094 45.9691 29.6875 46.7191 29.6875C47.4066 29.6875 47.8441 29.2656 48.1253 28.3594C48.7191 26.4531 50.5316 25.5625 52.4222 26.25C53.9378 26.7969 54.2972 26.8125 54.7503 26.3438C55.3128 25.7969 55.2972 24.9688 54.7503 24.4531C53.8597 23.625 51.5159 23.125 50.0316 23.4375Z" fill="#024007"/>
<path d="M23.2814 39.9376C19.9689 41.1407 18.5939 44.8907 20.3908 47.8751C20.8439 48.6251 20.8595 48.7344 20.6564 49.0001C20.5314 49.1563 20.2502 49.6876 20.0314 50.1563C19.7033 50.8594 19.6252 51.2501 19.6252 52.2813C19.6252 53.4063 19.6877 53.6719 20.1252 54.5782C21.9845 58.3438 27.2658 58.7188 29.4845 55.2344C29.7502 54.7969 30.1564 54.2657 30.3595 54.0157L30.7658 53.5938H39.9533C47.8283 53.5938 49.2033 53.6251 49.4845 53.8282C49.6564 53.9532 50.0158 54.4219 50.2814 54.8751C51.2345 56.5469 52.7345 57.5001 54.6252 57.6251C55.672 57.6876 55.7814 57.6719 56.1564 57.2969C57.1095 56.3438 56.3908 55.0001 54.922 55.0001C54.3127 55.0001 53.3439 54.5782 52.9533 54.1251C52.8127 53.9532 52.547 53.5469 52.3752 53.2032C51.9689 52.3907 51.1877 51.6563 50.3127 51.2657C49.6252 50.9532 49.3283 50.9376 40.0002 50.9376C30.672 50.9376 30.3752 50.9532 29.6877 51.2657C28.8127 51.6563 28.0314 52.3907 27.6252 53.2032C27.2033 54.0469 26.9064 54.3594 26.2189 54.7032C24.1564 55.7501 21.7502 53.7813 22.3439 51.5469C22.4845 51.0469 22.7814 50.6251 23.4533 49.9844C24.672 48.8126 24.672 48.5313 23.4533 47.3594C22.4377 46.3907 22.0939 45.5782 22.2814 44.6094C22.7658 42.0157 26.297 41.5469 27.5002 43.9063C27.9533 44.7813 28.7033 45.5938 29.4377 45.9844C30.0783 46.3282 30.0939 46.3282 40.0002 46.3282C49.9064 46.3282 49.922 46.3282 50.5627 45.9844C51.297 45.5938 52.047 44.7813 52.5002 43.9063C53.6564 41.6251 57.0002 41.9376 57.6564 44.3751C57.9689 45.5157 57.6408 46.3282 56.4689 47.4376C55.3283 48.5001 55.3439 48.8126 56.547 49.9688C57.5002 50.8907 57.8127 51.5469 57.8127 52.6719C57.8127 53.8282 59.2189 54.3594 60.0158 53.5001C60.7345 52.7344 60.3752 50.3438 59.3439 49.0001C59.1408 48.7344 59.1564 48.6251 59.6095 47.8751C61.2814 45.0938 60.2033 41.6094 57.2189 40.1407C56.1877 39.6251 53.8595 39.6094 52.797 40.0938C51.8127 40.5469 50.8439 41.4688 50.2814 42.4532C50.0158 42.9219 49.6564 43.3907 49.4845 43.5157C48.9845 43.8594 31.0158 43.8594 30.5158 43.5157C30.3439 43.3907 29.9845 42.9219 29.7189 42.4532C29.1564 41.4532 28.1877 40.5469 27.2033 40.1094C26.2345 39.6719 24.2502 39.5938 23.2814 39.9376Z" fill="#024007"/>
</svg>
