<svg width="21" height="20" viewBox="0 0 21 20" fill="none" xmlns="http://www.w3.org/2000/svg">
<path d="M16.525 12.7171L14.408 12.4751C14.1592 12.4459 13.9071 12.4735 13.6705 12.5558C13.4339 12.638 13.219 12.7728 13.042 12.9501L11.508 14.4831C9.1427 13.2799 7.22012 11.3574 6.017 8.99206L7.558 7.45006C7.917 7.09206 8.092 6.59206 8.033 6.08306L7.792 3.98306C7.74464 3.57647 7.54942 3.20149 7.2435 2.9295C6.93759 2.65752 6.54234 2.50752 6.133 2.50806H4.692C3.75 2.50806 2.967 3.29206 3.025 4.23306C3.467 11.3501 9.158 17.0331 16.267 17.4751C17.208 17.5331 17.992 16.7501 17.992 15.8081V14.3671C17.9941 13.9595 17.8454 13.5656 17.5746 13.261C17.3038 12.9564 16.93 12.7627 16.525 12.7171Z" fill="url(#paint0_linear_121_329)"/>
<defs>
<linearGradient id="paint0_linear_121_329" x1="10.507" y1="2.50806" x2="10.507" y2="17.4781" gradientUnits="userSpaceOnUse">
<stop stop-color="#00FF29"/>
<stop offset="1" stop-color="#07BC16"/>
</linearGradient>
</defs>
</svg>
