<svg width="80" height="80" viewBox="0 0 80 80" fill="none" xmlns="http://www.w3.org/2000/svg">
<g clip-path="url(#clip0_152_227)">
<path d="M64.8491 1.63481C62.6426 4.14009 62.7429 6.14432 65.15 8.34896C67.1559 10.1528 67.1559 10.1528 64.4479 13.0589L61.74 15.8648L58.6309 12.8585C56.9259 11.2551 54.8197 9.85213 54.0174 9.85213C51.8109 9.85213 49.103 13.0589 49.103 15.5642C49.103 16.6665 48.2003 18.3701 47.0971 19.3722C45.9939 20.3743 45.0912 21.5768 45.0912 22.0779C45.0912 23.4809 48.4009 22.9798 50.3065 21.176C52.1118 19.5726 52.4127 19.6728 56.3241 23.6813L60.5365 27.7899L58.1294 30.3954C56.3241 32.2994 55.0203 32.8005 53.3153 32.3997C51.1089 31.8986 50.9083 32.099 51.51 34.3037C52.3124 37.31 50.808 38.4123 48.2003 36.7087C45.5927 35.1054 44.2889 36.4081 45.9939 39.1138C46.8965 40.617 46.9968 41.4187 46.1945 42.2204C45.3921 43.0221 43.8877 42.2204 40.9792 39.214C36.9674 35.2056 36.8672 35.1054 38.4719 32.6001C39.7757 30.7963 39.876 29.8944 38.9733 29.3933C38.2713 28.8923 33.5575 32.9007 26.8378 39.5147C16.7081 49.636 15.9058 50.6381 16.4072 53.6444C16.7081 55.7489 16.3069 57.252 15.4043 58.0537C14.5017 58.7552 14.1005 60.058 14.3011 61.0601C14.6019 62.1624 12.2952 65.1687 7.3808 70.0791C0.259944 77.1941 -1.54534 80 1.26288 80C1.96494 80 5.7761 76.693 9.88814 72.5844C14.8025 67.674 17.8113 65.3692 18.9146 65.6698C19.9175 65.8702 21.2213 65.4694 21.9234 64.5675C22.826 63.5654 24.1299 63.2647 26.1357 63.6656C28.9439 64.1666 30.3481 63.0643 45.8936 47.5316C56.7253 36.809 63.445 30.8965 64.7488 30.8965C67.0556 30.8965 70.1647 27.9904 70.1647 25.8859C70.1647 25.0842 68.7606 23.08 67.1559 21.3764L64.147 18.2699L66.9553 15.5642C69.8638 12.8585 69.8638 12.8585 71.6691 14.8627C73.9758 17.368 76.3829 17.4682 78.489 15.0631C81.0967 12.157 80.5952 10.6538 74.8785 5.04199C69.1617 -0.569839 67.3564 -1.1711 64.8491 1.63481ZM73.0732 7.7477C76.1823 10.8542 76.784 11.9566 75.7811 12.7583C74.8785 13.5599 73.4744 12.658 70.3653 9.5515C66.5541 5.64326 65.852 3.83945 68.3594 3.83945C68.7606 3.83945 70.967 5.64326 73.0732 7.7477ZM61.1382 19.3722C66.2532 24.483 67.3564 26.0864 66.3535 27.0885C65.3506 28.0906 63.7459 26.9883 58.5306 21.6771C54.7194 17.9692 52.1118 14.5621 52.513 13.9608C53.7165 12.157 54.4186 12.5578 61.1382 19.3722ZM38.5721 41.9197C41.3804 44.8259 42.1827 46.2288 41.3804 47.0305C40.578 47.8322 39.7757 47.732 38.2713 46.8301C35.5633 45.1265 34.2595 46.4292 35.8642 49.0347C37.5692 51.7404 36.466 53.0432 33.3569 52.3417C30.9498 51.7404 30.8495 51.8406 31.351 54.1455C31.8525 56.0495 31.351 57.252 29.4454 58.9556L26.9381 61.3607L22.7257 57.1518L18.5134 52.943L26.0354 45.4271C30.1475 41.3185 33.758 37.9113 34.0589 37.9113C34.3598 37.9113 36.466 39.7151 38.5721 41.9197ZM20.5193 59.9578C21.6225 61.6613 20.0178 63.1645 18.4131 61.8618C17.7111 61.2605 17.3099 60.3586 17.6108 59.8575C18.3128 58.655 19.7169 58.7552 20.5193 59.9578Z" fill="#024007"/>
<path d="M41.0791 26.4872C41.0791 28.1908 43.2856 27.8901 43.8873 26.0863C44.0879 25.3848 43.5864 24.8838 42.6838 24.8838C41.7812 24.8838 41.0791 25.5853 41.0791 26.4872Z" fill="#024007"/>
</g>
<defs>
<clipPath id="clip0_152_227">
<rect width="80" height="80" fill="white"/>
</clipPath>
</defs>
</svg>
