<svg width="203" height="38" viewBox="0 0 203 38" fill="none" xmlns="http://www.w3.org/2000/svg">
<path d="M62.8 26.106L67.84 10.806H73.204L65.824 30.75H59.704L52.36 10.806H57.76L62.8 26.106ZM94.5748 20.346C94.5748 21.066 94.5268 21.714 94.4308 22.29H79.8508C79.9708 23.73 80.4748 24.858 81.3628 25.674C82.2508 26.49 83.3428 26.898 84.6388 26.898C86.5108 26.898 87.8428 26.094 88.6348 24.486H94.0708C93.4948 26.406 92.3908 27.99 90.7588 29.238C89.1268 30.462 87.1228 31.074 84.7468 31.074C82.8268 31.074 81.0988 30.654 79.5628 29.814C78.0508 28.95 76.8628 27.738 75.9988 26.178C75.1588 24.618 74.7388 22.818 74.7388 20.778C74.7388 18.714 75.1588 16.902 75.9988 15.342C76.8388 13.782 78.0148 12.582 79.5268 11.742C81.0388 10.902 82.7788 10.482 84.7468 10.482C86.6428 10.482 88.3348 10.89 89.8228 11.706C91.3348 12.522 92.4988 13.686 93.3148 15.198C94.1548 16.686 94.5748 18.402 94.5748 20.346ZM89.3548 18.906C89.3308 17.61 88.8628 16.578 87.9508 15.81C87.0388 15.018 85.9228 14.622 84.6028 14.622C83.3548 14.622 82.2988 15.006 81.4348 15.774C80.5948 16.518 80.0788 17.562 79.8868 18.906H89.3548ZM104.122 14.946V24.594C104.122 25.266 104.278 25.758 104.59 26.07C104.926 26.358 105.478 26.502 106.246 26.502H108.586V30.75H105.418C101.17 30.75 99.046 28.686 99.046 24.558V14.946H96.67V10.806H99.046V5.874H104.122V10.806H108.586V14.946H104.122ZM133.055 5.622V30.75H128.015V20.058H117.251V30.75H112.211V5.622H117.251V15.954H128.015V5.622H133.055ZM136.719 20.706C136.719 18.69 137.115 16.902 137.907 15.342C138.723 13.782 139.815 12.582 141.183 11.742C142.575 10.902 144.123 10.482 145.827 10.482C147.315 10.482 148.611 10.782 149.715 11.382C150.843 11.982 151.743 12.738 152.415 13.65V10.806H157.491V30.75H152.415V27.834C151.767 28.77 150.867 29.55 149.715 30.174C148.587 30.774 147.279 31.074 145.791 31.074C144.111 31.074 142.575 30.642 141.183 29.778C139.815 28.914 138.723 27.702 137.907 26.142C137.115 24.558 136.719 22.746 136.719 20.706ZM152.415 20.778C152.415 19.554 152.175 18.51 151.695 17.646C151.215 16.758 150.567 16.086 149.751 15.63C148.935 15.15 148.059 14.91 147.123 14.91C146.187 14.91 145.323 15.138 144.531 15.594C143.739 16.05 143.091 16.722 142.587 17.61C142.107 18.474 141.867 19.506 141.867 20.706C141.867 21.906 142.107 22.962 142.587 23.874C143.091 24.762 143.739 25.446 144.531 25.926C145.347 26.406 146.211 26.646 147.123 26.646C148.059 26.646 148.935 26.418 149.751 25.962C150.567 25.482 151.215 24.81 151.695 23.946C152.175 23.058 152.415 22.002 152.415 20.778ZM161.118 20.706C161.118 18.69 161.514 16.902 162.306 15.342C163.122 13.782 164.214 12.582 165.582 11.742C166.974 10.902 168.522 10.482 170.226 10.482C171.714 10.482 173.01 10.782 174.114 11.382C175.242 11.982 176.142 12.738 176.814 13.65V10.806H181.89V30.75H176.814V27.834C176.166 28.77 175.266 29.55 174.114 30.174C172.986 30.774 171.678 31.074 170.19 31.074C168.51 31.074 166.974 30.642 165.582 29.778C164.214 28.914 163.122 27.702 162.306 26.142C161.514 24.558 161.118 22.746 161.118 20.706ZM176.814 20.778C176.814 19.554 176.574 18.51 176.094 17.646C175.614 16.758 174.966 16.086 174.15 15.63C173.334 15.15 172.458 14.91 171.522 14.91C170.586 14.91 169.722 15.138 168.93 15.594C168.138 16.05 167.49 16.722 166.986 17.61C166.506 18.474 166.266 19.506 166.266 20.706C166.266 21.906 166.506 22.962 166.986 23.874C167.49 24.762 168.138 25.446 168.93 25.926C169.746 26.406 170.61 26.646 171.522 26.646C172.458 26.646 173.334 26.418 174.15 25.962C174.966 25.482 175.614 24.81 176.094 23.946C176.574 23.058 176.814 22.002 176.814 20.778ZM194.444 31.074C192.812 31.074 191.348 30.786 190.052 30.21C188.756 29.61 187.724 28.806 186.956 27.798C186.212 26.79 185.804 25.674 185.732 24.45H190.808C190.904 25.218 191.276 25.854 191.924 26.358C192.596 26.862 193.424 27.114 194.408 27.114C195.368 27.114 196.112 26.922 196.64 26.538C197.192 26.154 197.468 25.662 197.468 25.062C197.468 24.414 197.132 23.934 196.46 23.622C195.812 23.286 194.768 22.926 193.328 22.542C191.84 22.182 190.616 21.81 189.656 21.426C188.72 21.042 187.904 20.454 187.208 19.662C186.536 18.87 186.2 17.802 186.2 16.458C186.2 15.354 186.512 14.346 187.136 13.434C187.784 12.522 188.696 11.802 189.872 11.274C191.072 10.746 192.476 10.482 194.084 10.482C196.46 10.482 198.356 11.082 199.772 12.282C201.188 13.458 201.968 15.054 202.112 17.07H197.288C197.216 16.278 196.88 15.654 196.28 15.198C195.704 14.718 194.924 14.478 193.94 14.478C193.028 14.478 192.32 14.646 191.816 14.982C191.336 15.318 191.096 15.786 191.096 16.386C191.096 17.058 191.432 17.574 192.104 17.934C192.776 18.27 193.82 18.618 195.236 18.978C196.676 19.338 197.864 19.71 198.8 20.094C199.736 20.478 200.54 21.078 201.212 21.894C201.908 22.686 202.268 23.742 202.292 25.062C202.292 26.214 201.968 27.246 201.32 28.158C200.696 29.07 199.784 29.79 198.584 30.318C197.408 30.822 196.028 31.074 194.444 31.074Z" fill="#01660A"/>
<path d="M4.49295 17.5C3.23098 17.5 2.16667 17.0643 1.3 16.193C0.43333 15.3216 0 14.2549 0 12.993C0 11.731 0.43568 10.6667 1.30705 9.8C2.17842 8.9333 3.24508 8.5 4.50705 8.5C5.76902 8.5 6.8333 8.9357 7.7 9.807C8.5667 10.6784 9 11.7451 9 13.007C9 14.269 8.5643 15.3333 7.6929 16.2C6.8216 17.0667 5.75492 17.5 4.49295 17.5ZM13.743 9C12.481 9 11.4167 8.5643 10.55 7.693C9.6833 6.8216 9.25 5.7549 9.25 4.493C9.25 3.23098 9.6857 2.16667 10.557 1.3C11.4284 0.43333 12.4951 0 13.757 0C15.019 0 16.0833 0.43568 16.95 1.30705C17.8167 2.17842 18.25 3.24508 18.25 4.507C18.25 5.769 17.8143 6.8333 16.943 7.7C16.0716 8.5667 15.0049 9 13.743 9ZM26.243 9C24.981 9 23.9167 8.5643 23.05 7.693C22.1833 6.8216 21.75 5.7549 21.75 4.493C21.75 3.23098 22.1857 2.16667 23.0571 1.3C23.9284 0.43333 24.9951 0 26.257 0C27.519 0 28.5833 0.43568 29.45 1.30705C30.3167 2.17842 30.75 3.24508 30.75 4.507C30.75 5.769 30.3143 6.8333 29.443 7.7C28.5716 8.5667 27.5049 9 26.243 9ZM35.493 17.5C34.231 17.5 33.1667 17.0643 32.3 16.193C31.4333 15.3216 31 14.2549 31 12.993C31 11.731 31.4357 10.6667 32.307 9.8C33.1784 8.9333 34.2451 8.5 35.507 8.5C36.769 8.5 37.8333 8.9357 38.7 9.807C39.5667 10.6784 40 11.7451 40 13.007C40 14.269 39.5643 15.3333 38.693 16.2C37.8216 17.0667 36.7549 17.5 35.493 17.5ZM9.3 38C7.9 38 6.75 37.4746 5.85 36.4237C4.95 35.3728 4.5 34.1316 4.5 32.7C4.5 31.3 4.925 30.0583 5.775 28.975C6.625 27.8917 7.5333 26.85 8.5 25.85C9.2333 25.1167 9.9167 24.3417 10.55 23.525C11.1833 22.7083 11.7833 21.8667 12.35 21C13.3167 19.5333 14.4 18.1667 15.6 16.9C16.8 15.6333 18.2667 15 20 15C21.7333 15 23.2083 15.6333 24.425 16.9C25.6417 18.1667 26.7333 19.55 27.7 21.05C28.2667 21.9167 28.8583 22.75 29.475 23.55C30.0917 24.35 30.7667 25.1167 31.5 25.85C32.4667 26.85 33.375 27.8917 34.225 28.975C35.075 30.0583 35.5 31.3 35.5 32.7C35.5 34.1316 35.05 35.3728 34.15 36.4237C33.25 37.4746 32.1 38 30.7 38C28.9 38 27.1167 37.85 25.35 37.55C23.5833 37.25 21.8 37.1 20 37.1C18.2 37.1 16.4167 37.25 14.65 37.55C12.8833 37.85 11.1 38 9.3 38Z" fill="#01660A"/>
</svg>
